<svg width="24" height="24" viewBox="0 0 24 24" fill="none" xmlns="http://www.w3.org/2000/svg">
  <path d="M4 5C4 3.34315 5.34315 2 7 2C8.65685 2 10 3.34315 10 5C10 6.65685 8.65685 8 7 8C5.34315 8 4 6.65685 4 5Z" stroke="#000" stroke-width="2" stroke-linecap="round" stroke-linejoin="round"/>
  <path d="M14 5C14 3.34315 15.3431 2 17 2C18.6569 2 20 3.34315 20 5C20 6.65685 18.6569 8 17 8C15.3431 8 14 6.65685 14 5Z" stroke="#000" stroke-width="2" stroke-linecap="round" stroke-linejoin="round"/>
  <path d="M7 14C5.34315 14 4 15.3431 4 17C4 18.6569 5.34315 20 7 20H15C16.6569 20 18 18.6569 18 17C18 15.3431 16.6569 14 15 14" stroke="#000" stroke-width="2" stroke-linecap="round" stroke-linejoin="round"/>
</svg>
